<?xml version="1.0" standalone="no"?>
<!DOCTYPE svg PUBLIC "-//W3C//DTD SVG 20010904//EN"
 "http://www.w3.org/TR/2001/REC-SVG-20010904/DTD/svg10.dtd">
<svg version="1.0" xmlns="http://www.w3.org/2000/svg"
 width="466.000000pt" height="401.000000pt" viewBox="0 0 466.000000 401.000000"
 preserveAspectRatio="xMidYMid meet">
<metadata>
Created by potrace 1.16, written by Peter Selinger 2001-2019
</metadata>
<g transform="translate(0.000000,401.000000) scale(0.100000,-0.100000)"
fill="#000000" stroke="none">
<path d="M2110 3985 c-246 -31 -506 -112 -662 -207 -66 -40 -93 -98 -84 -179
l6 -60 -47 -32 c-232 -160 -399 -327 -536 -537 -53 -82 -152 -273 -174 -337
-11 -29 -13 -30 -86 -36 -117 -8 -204 -63 -255 -161 l-27 -51 0 -415 0 -415
28 -57 c60 -121 189 -182 326 -154 34 7 66 17 71 22 5 5 -1 38 -15 79 -57 170
-69 261 -69 525 0 228 2 253 26 360 62 273 188 535 358 745 106 130 321 319
423 371 29 15 30 15 59 -20 64 -78 142 -87 265 -30 394 182 799 187 1194 15
165 -72 225 -69 299 15 37 43 25 46 155 -45 101 -71 302 -270 386 -383 129
-173 237 -417 295 -663 27 -114 28 -132 29 -365 0 -223 -2 -254 -24 -350 -137
-603 -529 -1069 -1086 -1288 -55 -22 -142 -50 -192 -62 l-92 -23 -45 41 c-39
36 -51 41 -110 47 -37 4 -149 5 -249 3 -199 -5 -227 -12 -265 -66 -33 -46 -36
-91 -10 -142 40 -77 63 -84 283 -88 105 -2 213 -1 242 3 62 8 113 39 133 82
14 29 22 34 90 49 356 80 710 291 951 568 132 151 257 348 332 526 l24 56 86
10 c100 13 167 49 217 117 59 80 61 104 58 539 l-3 393 -27 51 c-30 57 -94
118 -148 141 -19 9 -68 18 -108 22 l-73 6 -36 85 c-145 335 -366 597 -698 826
-29 20 -30 24 -30 95 0 112 -19 136 -159 204 -307 150 -683 212 -1026 170z"/>
<path d="M2135 3329 c-162 -21 -362 -93 -510 -183 -332 -202 -545 -499 -637
-888 -29 -126 -32 -439 -5 -565 57 -265 177 -493 360 -682 l65 -68 -9 -44
c-36 -161 -176 -364 -316 -460 -44 -31 -57 -59 -25 -59 9 0 49 5 87 10 225 33
466 137 601 262 45 42 46 42 87 30 232 -68 269 -74 449 -79 259 -8 438 28 645
127 275 133 523 384 652 661 83 178 111 300 118 524 8 259 -29 439 -131 650
-235 481 -716 780 -1247 774 -63 -1 -145 -6 -184 -10z m-250 -1240 c81 -75 84
-162 8 -239 -44 -44 -46 -45 -108 -45 -48 0 -70 5 -92 21 -35 25 -73 98 -73
139 0 87 81 165 173 165 42 0 53 -5 92 -41z m526 15 c41 -21 72 -71 77 -124
16 -171 -211 -242 -296 -92 -28 50 -28 104 0 153 45 81 135 107 219 63z m529
4 c60 -31 90 -77 90 -140 0 -81 -42 -137 -119 -158 -107 -28 -217 75 -197 185
9 45 68 112 110 124 49 14 69 13 116 -11z"/>
<path d="M109 2287 c-64 -43 -69 -65 -69 -317 0 -199 3 -230 19 -267 12 -25
32 -48 50 -57 64 -34 61 -51 61 324 0 374 3 360 -61 317z"/>
<path d="M4490 1971 l0 -341 26 0 c34 0 89 57 98 100 3 18 6 129 6 247 0 229
-5 257 -51 300 -13 12 -36 25 -51 28 l-28 7 0 -341z"/>
</g>
</svg>
