<?xml version="1.0" standalone="no"?>
<!DOCTYPE svg PUBLIC "-//W3C//DTD SVG 20010904//EN"
 "http://www.w3.org/TR/2001/REC-SVG-20010904/DTD/svg10.dtd">
<svg version="1.0" xmlns="http://www.w3.org/2000/svg"
 width="527.000000pt" height="473.000000pt" viewBox="0 0 527.000000 473.000000"
 preserveAspectRatio="xMidYMid meet">
<metadata>
Created by potrace 1.16, written by Peter Selinger 2001-2019
</metadata>
<g transform="translate(0.000000,473.000000) scale(0.100000,-0.100000)" fill="#007bff" stroke="none">
<path d="M1989 4539 c-100 -23 -204 -81 -268 -148 -78 -83 -119 -174 -141
-316 -16 -97 -11 -615 5 -622 7 -2 30 5 52 17 52 27 154 43 218 35 88 -12 188
-66 273 -148 72 -70 81 -75 132 -81 87 -11 188 -66 256 -139 33 -35 69 -83 81
-108 24 -48 53 -150 53 -185 0 -14 14 -30 39 -47 102 -68 181 -226 181 -364 0
-42 -9 -90 -25 -140 l-25 -75 21 -70 c43 -145 34 -281 -26 -381 -27 -46 -139
-167 -155 -167 -5 0 -10 -10 -10 -23 0 -39 -29 -140 -57 -194 -34 -68 -118
-151 -185 -183 l-53 -25 -3 -355 c-1 -195 -7 -370 -12 -389 -5 -19 -8 -37 -6
-40 2 -3 429 -6 948 -5 729 0 955 3 998 13 150 35 280 132 349 260 63 119 63
117 71 581 10 512 12 1956 4 1987 l-6 22 -552 3 c-506 3 -554 4 -591 21 -51
23 -90 60 -123 117 l-27 45 -3 558 -3 557 -687 -1 c-378 -1 -703 -5 -723 -10z"/>
<path d="M3650 4025 l0 -525 520 0 c410 0 520 3 520 13 0 13 -1019 1037 -1033
1037 -4 0 -7 -236 -7 -525z"/>
<path d="M1262 3233 c-19 -9 -48 -34 -65 -56 -18 -21 -42 -50 -54 -64 -13 -14
-23 -30 -23 -35 0 -15 -61 -35 -130 -42 -95 -10 -131 -24 -172 -68 -40 -41
-53 -78 -63 -168 -11 -101 -15 -109 -86 -160 -68 -49 -116 -106 -127 -151 -13
-50 -6 -90 32 -192 15 -37 26 -75 26 -85 0 -9 -14 -53 -31 -97 -42 -112 -42
-180 1 -243 18 -26 59 -65 92 -87 70 -47 83 -69 92 -154 17 -172 60 -215 251
-247 l50 -9 2 -454 3 -455 22 -24 c49 -51 105 -65 158 -37 16 8 99 60 184 114
l155 99 143 -95 c159 -106 210 -132 251 -133 40 0 85 26 107 63 19 30 20 53
20 478 l0 447 83 12 c94 13 149 40 177 85 17 28 34 92 54 207 6 30 20 48 81
99 134 113 153 187 88 342 l-36 89 23 61 c12 34 29 78 36 97 32 85 6 173 -72
236 -121 99 -123 101 -134 189 -24 182 -64 222 -240 241 -36 4 -73 11 -82 15
-9 5 -44 43 -78 84 -102 125 -172 142 -332 81 l-87 -33 -53 19 c-122 43 -141
48 -186 48 -26 0 -62 -8 -80 -17z m468 -533 c122 -41 252 -156 309 -273 118
-240 19 -542 -217 -661 -172 -87 -326 -88 -482 -5 -62 33 -155 118 -200 184
-37 54 -69 151 -77 229 -12 135 47 288 151 392 64 64 186 133 268 153 59 14
176 5 248 -19z"/>
</g>
</svg>
