<?xml version="1.0" standalone="no"?>
<!DOCTYPE svg PUBLIC "-//W3C//DTD SVG 20010904//EN"
 "http://www.w3.org/TR/2001/REC-SVG-20010904/DTD/svg10.dtd">
<svg version="1.0" xmlns="http://www.w3.org/2000/svg"
 width="550.000000pt" height="437.000000pt" viewBox="0 0 550.000000 437.000000"
 preserveAspectRatio="xMidYMid meet">
<metadata>
Created by potrace 1.16, written by Peter Selinger 2001-2019
</metadata>
<g transform="translate(0.000000,437.000000) scale(0.100000,-0.100000)"
fill="#000000" stroke="none">
<path d="M508 4350 c-222 -47 -390 -197 -460 -413 l-23 -72 0 -865 0 -865 31
-87 c71 -199 223 -338 429 -393 34 -10 123 -19 208 -22 l147 -6 0 -184 c0
-143 3 -192 15 -221 23 -55 80 -108 131 -122 91 -26 101 -21 527 263 l392 262
570 6 c556 5 572 6 645 28 112 34 186 78 265 156 76 75 119 148 157 260 l23
70 0 855 0 855 -28 83 c-41 119 -71 168 -151 247 -92 91 -184 140 -312 166
-92 18 -150 19 -1287 18 -1115 0 -1198 -2 -1279 -19z m2508 -405 c29 -8 62
-28 81 -47 66 -68 63 -27 63 -890 0 -521 -4 -796 -11 -821 -6 -21 -26 -56 -46
-78 -63 -69 -62 -69 -709 -69 -541 0 -575 -1 -616 -19 -24 -10 -52 -26 -63
-35 -11 -9 -119 -82 -240 -161 l-220 -144 -7 104 c-8 128 -37 193 -103 228
-37 21 -58 22 -305 27 -293 6 -299 7 -358 74 -17 20 -36 52 -41 73 -7 25 -11
306 -11 824 l0 787 28 53 c29 55 67 86 125 99 18 5 561 8 1208 9 1008 1 1182
-1 1225 -14z"/>
<path d="M3842 3068 l3 -203 545 -5 c592 -5 573 -4 627 -62 55 -58 53 -32 53
-895 0 -783 0 -797 -21 -839 -22 -47 -66 -84 -118 -102 -22 -8 -113 -12 -255
-12 -235 -1 -290 -7 -338 -43 -58 -43 -80 -96 -86 -212 -2 -58 -7 -105 -9
-105 -2 0 -117 75 -256 167 -139 92 -268 172 -287 179 -26 10 -144 13 -477 14
-410 0 -444 1 -485 19 -95 42 -128 113 -128 281 l0 110 -200 0 -200 0 0 -137
c0 -166 16 -251 66 -353 69 -138 220 -261 380 -306 50 -15 126 -18 493 -22
l434 -4 339 -226 c498 -333 451 -306 534 -307 63 0 76 3 114 30 29 20 51 47
67 80 21 47 23 62 23 236 l0 186 153 6 c240 9 345 48 478 175 93 88 151 194
174 315 21 111 21 1632 1 1749 -38 213 -189 380 -421 465 -46 17 -97 18 -628
21 l-577 3 2 -203z"/>
</g>
</svg>
