<?xml version="1.0" standalone="no"?>
<!DOCTYPE svg PUBLIC "-//W3C//DTD SVG 20010904//EN"
 "http://www.w3.org/TR/2001/REC-SVG-20010904/DTD/svg10.dtd">
<svg version="1.0" xmlns="http://www.w3.org/2000/svg"
 width="659.000000pt" height="883.000000pt" viewBox="0 0 659.000000 883.000000"
 preserveAspectRatio="xMidYMid meet">
<metadata>
Created by potrace 1.16, written by Peter Selinger 2001-2019
</metadata>
<g transform="translate(0.000000,883.000000) scale(0.100000,-0.100000)"
fill="#000000" stroke="none">
<path d="M3075 8764 c-60 -7 -141 -27 -180 -44 -22 -9 -53 -20 -70 -24 -16 -4
-63 -23 -102 -42 -40 -18 -77 -34 -83 -34 -5 0 -10 -4 -10 -10 0 -5 -6 -10
-13 -10 -20 0 -237 -166 -289 -222 -78 -82 -156 -192 -209 -294 -28 -53 -56
-103 -64 -110 -9 -9 -40 -14 -92 -15 -43 0 -100 -4 -128 -9 -27 -5 -66 -12
-85 -15 -19 -4 -44 -10 -55 -14 -11 -5 -40 -16 -65 -26 -57 -22 -94 -39 -100
-45 -3 -3 -18 -12 -34 -20 -47 -24 -169 -143 -212 -207 -21 -32 -54 -88 -72
-125 -18 -36 -41 -70 -50 -74 -9 -4 -51 -11 -92 -15 -129 -12 -245 -30 -254
-40 -6 -5 -18 -9 -28 -9 -9 0 -32 -8 -50 -18 -18 -10 -45 -22 -59 -25 -33 -8
-184 -97 -224 -132 -138 -119 -269 -276 -305 -365 -6 -14 -22 -46 -35 -73 -13
-26 -27 -64 -31 -85 -4 -20 -10 -41 -14 -47 -13 -16 -30 -131 -39 -250 -4 -60
-4 -1293 0 -2740 7 -2615 8 -2743 39 -2780 4 -5 11 -27 15 -48 4 -20 11 -40
16 -43 5 -3 9 -13 9 -22 0 -9 6 -28 14 -42 7 -14 24 -45 37 -70 13 -25 27 -49
31 -55 4 -5 28 -38 53 -71 160 -219 375 -357 650 -421 76 -17 185 -18 2400
-18 2225 0 2323 1 2405 19 269 58 489 200 656 423 64 85 133 220 163 315 54
178 51 7 51 2923 0 2918 3 2756 -52 2925 -19 59 -71 174 -101 225 -72 122
-209 264 -337 347 -67 44 -98 61 -190 100 -14 6 -33 14 -42 19 -10 5 -26 9
-36 9 -10 0 -22 4 -28 9 -12 12 -137 32 -238 38 -44 2 -89 11 -100 18 -11 8
-37 47 -58 86 -54 101 -119 189 -170 231 -23 20 -56 47 -72 61 -16 14 -58 39
-95 57 -36 17 -74 36 -83 41 -10 5 -27 9 -37 9 -11 0 -22 4 -25 9 -3 5 -20 11
-38 14 -18 3 -55 10 -83 16 -27 5 -88 10 -135 11 -47 0 -90 4 -96 8 -6 4 -28
41 -49 82 -64 128 -141 237 -233 328 -48 48 -100 98 -117 111 -88 68 -280 181
-311 181 -8 0 -14 3 -14 8 0 4 -28 15 -63 25 -34 11 -71 23 -82 27 -11 5 -33
11 -50 14 -16 2 -50 9 -75 15 -41 9 -414 13 -485 5z m369 -525 c295 -54 521
-243 637 -534 4 -11 17 -42 28 -69 12 -27 21 -53 21 -58 0 -26 68 -93 120
-117 52 -24 66 -26 275 -31 215 -5 221 -6 275 -33 64 -31 113 -90 131 -157 9
-30 14 -143 16 -337 3 -272 2 -293 -14 -300 -10 -4 -751 -6 -1648 -3 l-1630 5
-3 265 c-2 160 2 291 8 331 16 94 58 155 134 194 l60 30 220 6 c208 5 224 7
276 31 79 36 129 97 165 200 39 115 71 183 117 251 144 212 380 334 652 336
55 1 127 -4 160 -10z m-2335 -1363 c8 -10 13 -78 14 -214 1 -128 6 -204 13
-213 6 -8 14 -27 18 -44 23 -98 137 -230 246 -283 133 -65 40 -62 1895 -62
1158 0 1701 3 1737 11 215 43 350 155 420 347 18 48 21 88 26 261 l4 204 77
-6 c89 -7 165 -33 235 -81 103 -69 145 -115 190 -211 10 -22 23 -48 27 -57 33
-66 34 -136 34 -2788 0 -1995 -3 -2654 -12 -2715 -12 -80 -54 -181 -97 -234
-41 -50 -119 -121 -132 -121 -8 0 -14 -4 -14 -10 0 -5 -7 -10 -15 -10 -8 0
-15 -4 -15 -10 0 -5 -16 -12 -35 -16 -19 -3 -38 -10 -41 -15 -3 -5 -18 -9 -34
-9 -16 0 -32 -5 -35 -10 -9 -14 -4611 -14 -4620 0 -3 6 -15 10 -26 10 -74 0
-217 90 -289 181 -55 70 -84 129 -104 214 -16 64 -17 282 -14 2770 l3 2700 23
59 c45 119 114 209 207 270 65 44 116 63 210 81 92 17 91 17 104 1z"/>
<path d="M3245 7680 c-3 -5 -19 -10 -35 -10 -15 0 -30 -3 -32 -7 -1 -5 -16
-15 -33 -25 -36 -19 -82 -82 -90 -123 -4 -16 -12 -44 -17 -61 -8 -23 -8 -40 0
-60 6 -16 13 -46 17 -66 4 -24 20 -53 48 -83 136 -148 397 -91 448 99 35 128
-17 268 -115 310 -84 36 -177 48 -191 26z"/>
<path d="M2638 5192 c-50 -28 -658 -613 -658 -633 0 -4 -12 -10 -26 -13 -31
-8 -49 2 -125 75 -183 175 -209 191 -304 192 -65 0 -76 -3 -121 -33 -57 -39
-86 -69 -116 -125 -31 -56 -31 -153 1 -216 29 -59 478 -505 536 -534 54 -27
155 -27 210 -1 47 23 889 855 936 926 64 96 63 169 -4 270 -57 87 -114 119
-212 119 -58 0 -78 -5 -117 -27z"/>
<path d="M3520 4395 c-111 -24 -157 -66 -197 -175 -47 -130 39 -302 166 -329
71 -15 1180 -15 1251 0 66 14 127 62 159 124 36 69 37 189 3 255 -38 72 -86
108 -167 123 -79 16 -1148 17 -1215 2z"/>
<path d="M1870 2890 c-62 -8 -130 -30 -130 -42 0 -4 -7 -8 -16 -8 -23 0 -119
-100 -143 -151 -12 -24 -24 -61 -28 -82 -3 -20 -10 -40 -14 -43 -12 -7 -11
-121 1 -129 6 -3 10 -15 10 -25 0 -47 46 -136 100 -190 84 -86 221 -132 331
-111 193 35 304 142 342 330 14 66 14 78 -3 149 -24 101 -43 137 -104 197 -47
46 -63 57 -128 85 -24 10 -134 31 -152 29 -6 -1 -36 -5 -66 -9z"/>
<path d="M3036 2763 c-1 -1 -29 -6 -64 -12 -77 -12 -143 -56 -175 -114 -19
-35 -22 -58 -22 -142 0 -91 2 -104 26 -140 42 -64 76 -86 167 -109 52 -14 170
-16 871 -16 904 0 911 0 993 63 110 84 130 267 40 380 -20 25 -43 46 -49 47
-7 0 -13 4 -13 9 0 25 -171 32 -958 34 -448 1 -815 1 -816 0z"/>
</g>
</svg>
