<?xml version="1.0" standalone="no"?>
<!DOCTYPE svg PUBLIC "-//W3C//DTD SVG 20010904//EN"
 "http://www.w3.org/TR/2001/REC-SVG-20010904/DTD/svg10.dtd">
<svg version="1.0" xmlns="http://www.w3.org/2000/svg"
 width="463.000000pt" height="463.000000pt" viewBox="0 0 463.000000 463.000000"
 preserveAspectRatio="xMidYMid meet">
<metadata>
Created by potrace 1.16, written by Peter Selinger 2001-2019
</metadata>
<g transform="translate(0.000000,463.000000) scale(0.100000,-0.100000)"
fill="#000000" stroke="none">
<path d="M2153 4613 c-33 -6 -73 -59 -73 -96 0 -18 -9 -69 -20 -115 -11 -46
-20 -96 -20 -112 0 -31 -22 -60 -46 -60 -8 0 -32 -9 -54 -20 -22 -11 -45 -20
-52 -20 -7 0 -53 30 -103 66 -131 95 -177 124 -197 124 -36 0 -74 -29 -190
-148 -114 -115 -118 -120 -118 -162 0 -24 6 -51 14 -59 7 -9 48 -66 90 -128
l76 -112 -27 -63 c-15 -35 -30 -68 -35 -74 -8 -11 -131 -36 -244 -49 -71 -9
-110 -35 -123 -82 -6 -21 -11 -105 -11 -186 0 -213 4 -220 160 -248 36 -6 98
-18 138 -26 l74 -15 19 -46 c11 -26 26 -58 33 -71 12 -22 7 -32 -76 -148 -104
-145 -113 -164 -98 -207 12 -38 233 -261 273 -275 38 -15 69 -1 200 93 60 43
116 78 125 78 29 2 142 -44 151 -61 5 -9 12 -41 15 -71 13 -98 39 -224 52
-252 11 -20 25 -29 64 -37 66 -14 308 -14 348 0 41 14 62 49 72 118 39 264 35
251 92 270 26 9 50 19 54 24 17 17 63 3 119 -38 192 -141 211 -151 258 -131
44 19 263 244 271 278 9 39 -4 66 -99 199 l-86 120 29 71 c15 40 35 75 43 79
8 4 68 15 134 24 66 9 140 24 164 32 64 23 71 48 71 243 0 174 -9 213 -53 229
-24 9 -135 31 -253 51 l-70 11 -31 75 -31 75 83 114 c105 144 108 149 102 198
-5 35 -20 55 -119 154 -112 114 -150 143 -185 143 -19 0 -72 -33 -183 -113
-110 -80 -108 -79 -171 -52 -30 13 -61 26 -70 28 -12 4 -20 27 -29 79 -32 201
-43 251 -64 273 -20 22 -29 23 -196 28 -96 2 -185 2 -197 0z m262 -907 c138
-36 235 -126 285 -265 44 -121 10 -296 -76 -387 -183 -196 -465 -189 -627 17
-65 83 -81 130 -81 244 1 92 3 106 33 167 85 179 281 274 466 224z"/>
<path d="M1090 2005 c-100 -13 -173 -34 -305 -88 -195 -80 -245 -101 -390
-165 -88 -39 -193 -87 -233 -106 -40 -20 -76 -36 -81 -36 -4 0 -18 -11 -31
-25 -27 -29 -31 -102 -7 -138 8 -13 36 -71 62 -131 26 -59 57 -129 70 -154 13
-26 41 -88 63 -138 22 -50 56 -124 75 -165 20 -41 53 -114 75 -164 73 -164
142 -302 159 -316 25 -21 93 -17 128 7 68 48 153 102 251 159 58 34 78 40 125
40 53 0 76 -10 395 -171 186 -95 382 -194 434 -220 93 -48 224 -107 307 -138
24 -9 82 -20 130 -25 150 -17 273 9 411 84 77 43 477 293 687 430 83 54 173
112 200 130 563 364 815 535 875 595 33 33 73 87 91 122 27 53 32 74 32 134 0
66 -2 75 -32 113 -44 56 -77 71 -153 71 -67 0 -149 -28 -216 -73 -147 -98
-369 -243 -376 -246 -5 -2 -58 -37 -118 -77 -60 -41 -111 -74 -113 -74 -2 0
-70 -45 -151 -99 -141 -96 -148 -102 -176 -160 -36 -74 -115 -157 -187 -194
-29 -15 -90 -37 -135 -49 -76 -20 -104 -21 -451 -22 -381 0 -433 3 -680 50
-174 32 -249 55 -277 85 -52 55 -26 150 44 163 18 3 65 -1 103 -10 305 -66
490 -84 860 -84 372 0 477 28 536 142 45 88 30 195 -38 259 -73 70 -131 87
-353 100 -173 10 -375 37 -468 64 -26 7 -64 16 -84 19 -52 9 -120 65 -228 186
-121 136 -186 196 -263 243 -77 47 -134 64 -266 77 -126 12 -166 12 -301 -5z"/>
<path d="M3191 2008 c-107 -15 -203 -58 -376 -168 -13 -8 -56 -35 -97 -59 -40
-25 -106 -66 -146 -92 -71 -45 -73 -47 -45 -53 15 -3 116 -10 223 -15 l195
-10 130 81 c71 44 141 88 155 97 44 28 56 35 96 58 22 12 70 42 108 66 l69 45
-31 16 c-62 32 -189 48 -281 34z"/>
<path d="M3750 1859 c-30 -12 -62 -27 -70 -34 -8 -6 -41 -27 -74 -46 -32 -19
-69 -41 -82 -49 -12 -8 -63 -39 -111 -69 -166 -103 -243 -154 -243 -160 0 -4
18 -25 40 -46 22 -21 40 -44 40 -50 0 -5 9 -21 20 -35 11 -14 20 -33 20 -43 0
-34 29 -28 102 19 454 295 678 444 678 453 0 4 -8 15 -17 23 -67 57 -207 74
-303 37z"/>
</g>
</svg>
