<?xml version="1.0" standalone="no"?>
<!DOCTYPE svg PUBLIC "-//W3C//DTD SVG 20010904//EN"
 "http://www.w3.org/TR/2001/REC-SVG-20010904/DTD/svg10.dtd">
<svg version="1.0" xmlns="http://www.w3.org/2000/svg"
 width="352.000000pt" height="403.000000pt" viewBox="0 0 352.000000 403.000000"
 preserveAspectRatio="xMidYMid meet">
<metadata>
Created by potrace 1.16, written by Peter Selinger 2001-2019
</metadata>
<g transform="translate(0.000000,403.000000) scale(0.100000,-0.100000)" fill="#ffffff" stroke="none">
<path d="M1640 4009 c-396 -51 -721 -335 -825 -719 -20 -75 -28 -135 -36 -285
-5 -104 -18 -231 -28 -281 -37 -182 -137 -369 -266 -499 -69 -69 -91 -116 -80
-173 10 -53 30 -88 72 -119 l36 -28 1262 0 1262 0 36 28 c62 47 89 125 67 193
-7 20 -43 70 -81 111 -114 123 -186 242 -233 385 -33 102 -45 186 -56 393 -11
212 -35 319 -105 460 -183 370 -603 589 -1025 534z m485 -690 c38 -17 100 -34
145 -41 l79 -11 23 -66 c21 -59 23 -84 23 -246 0 -171 -2 -184 -28 -260 -71
-201 -209 -336 -407 -397 -113 -34 -276 -32 -385 6 -197 68 -322 193 -391 391
-27 75 -28 90 -29 250 0 94 3 178 7 188 7 15 24 17 165 17 177 0 255 15 371
72 72 36 178 129 218 193 l28 44 58 -55 c35 -33 84 -67 123 -85z"/>
<path d="M1553 1620 c-77 -47 -71 -101 30 -275 l76 -130 -127 -477 c-70 -263
-129 -478 -132 -478 -3 0 -67 255 -144 568 -76 312 -145 579 -152 594 -17 32
-61 58 -101 58 -43 0 -201 -56 -296 -104 -123 -63 -209 -127 -313 -231 -217
-219 -346 -510 -361 -811 -6 -114 -5 -124 19 -176 29 -64 75 -103 144 -124 71
-21 3087 -21 3158 0 67 20 110 58 142 122 26 54 27 59 21 177 -15 303 -145
595 -362 812 -103 104 -191 169 -309 229 -91 47 -260 106 -301 106 -38 0 -83
-26 -99 -58 -7 -15 -76 -282 -152 -594 -77 -313 -141 -568 -144 -568 -3 0 -62
215 -132 478 l-127 477 76 130 c101 174 107 228 30 275 -29 18 -51 20 -222 20
-171 0 -193 -2 -222 -20z"/>
</g>
</svg>
